Coordinates
version=1
nRows=11
nColumns=40
inDegrees=yes

Units are S.I. units (second, meters, Newtons, ...)
Angles are in degrees.

endheader
time	pelvis_tilt	pelvis_list	pelvis_rotation	pelvis_tx	pelvis_ty	pelvis_tz	hip_flexion_r	hip_adduction_r	hip_rotation_r	knee_angle_r	knee_angle_r_beta	ankle_angle_r	subtalar_angle_r	mtp_angle_r	hip_flexion_l	hip_adduction_l	hip_rotation_l	knee_angle_l	knee_angle_l_beta	ankle_angle_l	subtalar_angle_l	mtp_angle_l	lumbar_extension	lumbar_bending	lumbar_rotation	arm_flex_r	arm_add_r	arm_rot_r	elbow_flex_r	pro_sup_r	wrist_flex_r	wrist_dev_r	arm_flex_l	arm_add_l	arm_rot_l	elbow_flex_l	pro_sup_l	wrist_flex_l	wrist_dev_l
     56.12000000	     -6.12097917	     -4.71930492	      2.50330822	      1.11626686	      0.91756556	      0.48144610	     -1.06971000	     -2.08733413	    -15.53668291	     26.81092907	     26.81092907	     13.84526407	      3.81177541	    -13.27116141	     30.03393400	     -4.36600563	     -1.81485889	     25.65904839	     25.65904839	      5.59779173	    -14.43926435	      5.45868212	     -6.29954910	      6.14093856	      4.25220658	     38.49723784	    -16.99759487	     -8.12669005	    120.82758434	     43.96927371	      0.00000000	      0.00000000	    -15.00293280	     -6.05128772	     14.43083755	     23.15878613	     44.01665364	      0.00000000	      0.00000000
     56.13142857	     -6.14068277	     -4.65675396	      2.36109396	      1.11624123	      0.91919796	      0.47850625	      0.27589279	     -2.82591907	    -14.87401576	     30.04182254	     30.04182254	     11.74716549	      1.88646711	    -15.15339539	     29.24698535	     -4.19754278	     -2.03383499	     25.47622632	     25.47622632	      6.25442367	    -14.35986455	      5.35889656	     -6.30983786	      6.20774312	      4.29491254	     36.14877129	    -17.35023483	     -8.43409005	    121.33626972	     43.97260467	      0.00000000	      0.00000000	    -13.90550290	     -6.17521444	     14.13350894	     23.73500285	     44.12044046	      0.00000000	      0.00000000
     56.14285714	     -6.05056865	     -4.57163598	      2.18078431	      1.11617127	      0.92086685	      0.47579007	      1.58650366	     -3.51108887	    -14.03958015	     33.19417692	     33.19417692	      8.60780267	     -0.79985052	    -19.11664366	     28.30057962	     -4.06287410	     -2.39152170	     25.24125422	     25.24125422	      6.95077878	    -14.03869539	      5.16833344	     -6.49284760	      6.18532806	      4.69076160	     33.27855008	    -17.58288823	     -9.52713436	    122.09818055	     44.03343756	      0.00000000	      0.00000000	    -12.58900489	     -6.30677963	     13.21250332	     24.35493286	     44.40802168	      0.00000000	      0.00000000
     56.15428571	     -6.02137361	     -4.52664820	      2.00382513	      1.11583198	      0.92222576	      0.47323165	      3.31544077	     -4.20458119	    -13.29477218	     36.99752334	     36.99752334	      6.61358267	     -2.73688376	    -19.10111343	     27.44818605	     -3.96873479	     -2.74583311	     24.99760391	     24.99760391	      7.50254573	    -13.75390402	      4.83593119	     -6.53246481	      6.24362004	      4.42484104	     30.99598388	    -17.49531235	     -9.39860776	    121.20484189	     44.06213776	      0.00000000	      0.00000000	    -11.49860771	     -6.46525657	     12.85454478	     24.97594606	     44.51292370	      0.00000000	      0.00000000
     56.16571429	     -5.89308927	     -4.36165778	      1.80259190	      1.11530214	      0.92354857	      0.47076571	      5.06615379	     -5.06580940	    -12.66591860	     40.89776048	     40.89776048	      4.59469772	     -4.29457135	    -18.82070764	     26.47294209	     -3.77116470	     -3.19830002	     24.72345327	     24.72345327	      8.01493654	    -13.43552593	      4.54955804	     -6.75865383	      6.16064411	      4.09181592	     28.65957196	    -17.11113323	     -9.17028586	    120.34242057	     44.07575392	      0.00000000	      0.00000000	    -10.30533297	     -6.68067771	     12.62006831	     25.61068362	     44.58020709	      0.00000000	      0.00000000
     56.17714286	     -5.89037070	     -4.30430367	      1.57202481	      1.11450159	      0.92449049	      0.46854861	      7.12078229	     -5.64353183	    -11.77649574	     44.82200357	     44.82200357	      2.58019942	     -6.36824996	    -17.98457762	     25.67848028	     -3.70016491	     -3.65179827	     24.47580339	     24.47580339	      8.53009026	    -13.08449790	      4.18381800	     -6.83683306	      6.19164145	      3.92538000	     26.20040914	    -16.97005300	     -9.18369806	    119.03540133	     44.11192318	      0.00000000	      0.00000000	     -9.06330201	     -6.97857939	     12.25666480	     26.47103759	     44.66812156	      0.00000000	      0.00000000
     56.18857143	     -5.76675329	     -4.24859115	      1.37248380	      1.11350640	      0.92540877	      0.46652590	      9.10169548	     -6.14116996	    -10.93928838	     48.64305622	     48.64305622	      0.70817517	     -8.29309939	    -16.85961106	     24.83685529	     -3.64418004	     -4.04574174	     24.35059063	     24.35059063	      8.99693519	    -12.70293025	      3.80362513	     -7.09494406	      6.20707382	      3.78259883	     23.76022398	    -16.68329275	     -9.18184128	    117.50427998	     44.15339942	      0.00000000	      0.00000000	     -7.63919798	     -7.30394823	     11.87404123	     27.42204039	     44.75820706	      0.00000000	      0.00000000
     56.20000000	     -5.72815496	     -4.39720234	      1.11155497	      1.11231656	      0.92605705	      0.46490901	     11.48517413	     -6.24999327	     -9.92640612	     52.87393276	     52.87393276	      1.18361162	     -8.97827140	     -9.27622323	     24.11391625	     -3.91032890	     -4.66978372	     24.22810058	     24.22810058	      9.29871238	    -11.98376518	      2.55627144	     -7.22750142	      6.38777698	      3.59912885	     21.51976354	    -16.17187407	    -10.18612347	    114.80807960	     44.32144833	      0.00000000	      0.00000000	     -6.87948022	     -7.52671190	      8.87590839	     30.13331843	     45.28928989	      0.00000000	      0.00000000
     56.21142857	     -5.58311937	     -4.26991559	      0.88228276	      1.11100846	      0.92678395	      0.46312503	     13.50399235	     -6.72376767	     -9.23143953	     56.30636375	     56.30636375	     -0.31136655	    -10.50890085	     -8.67544597	     23.26129293	     -3.78263891	     -5.06872956	     24.09026628	     24.09026628	      9.74869815	    -11.71164539	      2.32023790	     -7.54252378	      6.34400835	      3.42341678	     19.14046784	    -15.80891062	     -9.82052423	    112.93805432	     44.36083278	      0.00000000	      0.00000000	     -5.21997269	     -7.91547242	      8.58941412	     30.79929707	     45.35923510	      0.00000000	      0.00000000
     56.22285714	     -5.57569092	     -4.27888752	      0.58995782	      1.10950984	      0.92734334	      0.46166599	     15.72942022	     -6.85853616	     -8.40637391	     59.52427378	     59.52427378	     -1.37648181	    -12.10420236	     -7.48565865	     22.54360971	     -3.85528324	     -5.61530634	     23.90622390	     23.90622390	     10.27955075	    -11.20618731	      1.96280634	     -7.63065180	      6.37362277	      3.48803284	     16.80483041	    -15.77729122	     -9.92456973	    109.83389118	     44.45647918	      0.00000000	      0.00000000	     -3.54402639	     -8.26754409	      8.16395977	     31.72468999	     45.44842409	      0.00000000	      0.00000000
     56.23428571	     -5.42269932	     -4.32794430	      0.32604777	      1.10791629	      0.92804189	      0.46028883	     17.92754517	     -6.98647115	     -7.77083833	     62.83302623	     62.83302623	     -0.31918421	    -12.16623782	     -1.51300117	     21.75536553	     -4.02786442	     -6.30101399	     23.87119932	     23.87119932	     10.80383425	    -10.35679107	      1.45076213	     -7.88584175	      6.46934478	      2.69023665	     15.68801454	    -14.93436240	     -9.54301982	    104.76135387	     44.65081074	      0.00000000	      0.00000000	     -2.45783204	     -8.61482850	      5.70200641	     33.48010751	     45.81747919	      0.00000000	      0.00000000
